<?xml version="1.0" standalone="no"?>
<!DOCTYPE svg PUBLIC "-//W3C//DTD SVG 20010904//EN"
 "http://www.w3.org/TR/2001/REC-SVG-20010904/DTD/svg10.dtd">
<svg version="1.0" xmlns="http://www.w3.org/2000/svg"
 width="700.000000pt" height="700.000000pt" viewBox="0 0 700.000000 700.000000"
 preserveAspectRatio="xMidYMid meet">
<metadata>
Created by potrace 1.14, written by Peter Selinger 2001-2017
</metadata>
<g transform="translate(0.000000,700.000000) scale(0.100000,-0.100000)"
fill="#000000" stroke="none">
<path d="M1089 6462 c-1 -77 -1 -1346 0 -1362 2 -17 23 -42 195 -223 66 -71
137 -146 156 -166 19 -21 93 -100 165 -177 71 -76 164 -175 205 -219 93 -98
110 -116 185 -197 80 -86 331 -353 425 -453 41 -43 81 -86 88 -93 11 -13 7
-21 -26 -56 -64 -67 -121 -126 -233 -247 -59 -63 -120 -128 -135 -145 -16 -16
-88 -93 -160 -170 -72 -76 -148 -157 -169 -179 -20 -22 -65 -69 -99 -105 -33
-36 -117 -126 -186 -200 -69 -73 -141 -150 -160 -170 -19 -20 -87 -92 -150
-160 -63 -68 -136 -146 -162 -173 -43 -45 -48 -55 -49 -96 0 -25 0 -345 -1
-711 l0 -665 2516 -3 2516 -2 0 707 -1 708 -77 81 c-76 79 -306 324 -353 375
-13 15 -79 84 -145 155 -67 71 -136 145 -154 164 -18 19 -85 91 -150 160 -133
141 -176 187 -263 280 -33 36 -116 124 -184 196 -181 191 -223 238 -220 246 1
3 54 61 117 128 63 68 126 134 139 149 13 14 81 87 151 161 70 74 142 151 160
170 18 19 83 89 145 155 62 66 130 138 150 160 67 71 279 296 423 450 l141
150 1 712 0 712 -2400 0 -2400 0 -1 -47z m2843 -1396 c-9 -11 -45 -50 -79 -86
-34 -36 -76 -81 -93 -100 -18 -19 -86 -92 -153 -163 l-120 -127 -46 49 c-25
28 -68 74 -95 103 -45 48 -110 118 -263 281 -29 30 -53 57 -53 59 0 2 207 4
460 4 l459 0 -17 -20z m-389 -2598 c27 -29 106 -114 176 -188 272 -288 331
-352 331 -360 0 -5 -1116 -7 -1129 -1 -2 0 26 31 61 69 150 156 218 228 235
248 47 55 267 284 272 284 3 0 28 -24 54 -52z"/>
</g>
</svg>
